<svg width="126" height="35" viewBox="0 0 126 35" fill="none" xmlns="http://www.w3.org/2000/svg">
<path d="M90.6965 5.70139C93.0216 5.60764 95.3468 5.53734 97.6442 5.44359C101.353 5.30298 105.063 5.25611 108.772 5.30298C111.817 5.34985 114.834 5.44359 117.879 5.70139C119.788 5.86544 121.698 6.07636 123.581 6.45134C123.248 7.69344 122.28 8.23247 120.84 7.95124C118.626 7.55283 116.384 7.36534 114.114 7.22473C109.879 6.96693 105.672 6.96693 101.436 7.03724C97.2844 7.10755 93.16 7.24816 89.008 7.50596C85.8524 7.69344 82.6692 7.83406 79.5136 8.04499C76.1643 8.27934 72.7873 8.53714 69.438 8.79494C66.8084 9.00586 64.1788 9.21678 61.5492 9.45114C58.615 9.70894 55.6809 9.96673 52.7191 10.2011C47.8474 10.6229 42.9757 10.8339 38.104 10.4823C33.7858 10.1777 29.4954 9.77925 25.1496 9.82612C21.5235 9.84956 18.0911 10.6229 14.7141 11.6073C9.92544 13.0134 5.38588 14.9117 1.01239 17.1147C0.76327 17.2319 0.486467 17.5366 0.181984 17.2084C-0.0948187 16.9038 -0.0394579 16.5757 0.237345 16.2944C0.348066 16.2007 0.458787 16.107 0.597188 16.0367C6.32701 13.3181 12.2506 11.0214 18.6447 9.66207C21.8556 8.98242 25.0942 8.84181 28.3882 8.98242C30.4088 9.05273 32.4295 9.19335 34.4502 9.28709C34.7823 9.40427 35.0591 9.21678 35.3913 9.21678C35.4743 9.19335 35.5574 9.21678 35.6404 9.21678C35.8342 9.28709 36.0003 9.3574 36.2217 9.3574C36.3601 9.3574 36.4708 9.3574 36.6092 9.3574C38.2424 9.47458 39.9032 9.52145 41.5363 9.61519C41.6747 9.61519 41.8131 9.63863 41.9515 9.63863C44.1659 9.63863 46.3804 9.54489 48.5948 9.38083C52.47 9.0996 56.3453 8.70119 60.1928 8.32622C63.2653 8.04498 66.3102 7.74032 69.3827 7.48252C72.815 7.17786 76.2474 6.87319 79.6797 6.61539C82.4754 6.40447 85.2435 6.19354 88.0392 6.00606C88.0945 6.00606 88.1499 5.98262 88.2053 5.93575C88.2883 5.86544 88.399 5.79513 88.5097 5.79513C88.8142 5.88887 89.1187 5.79513 89.3955 5.74826C89.8938 5.56077 90.309 5.86544 90.6965 5.70139Z" fill="white"/>
<path d="M88.7033 5.81863C88.5926 5.81863 88.4818 5.81862 88.4265 5.91237C88.122 6.07642 87.8452 5.88893 87.5961 5.81863C83.2226 4.45934 78.7661 3.38128 74.1711 2.70164C72.5657 2.46728 70.9602 2.3501 69.3271 2.32667C68.386 2.30323 67.4171 2.20949 66.476 2.23292C60.9676 2.37354 55.5146 2.79539 50.2277 4.29529C47.4597 5.09211 44.7747 6.02955 42.1174 7.06073C40.3182 7.76381 38.5743 8.58407 36.8028 9.33402C36.609 9.35746 36.4429 9.40433 36.2492 9.40433C36.0831 9.35746 35.8893 9.35746 35.7232 9.26371C35.6402 9.26371 35.5572 9.26371 35.4741 9.26371C35.2527 9.33402 35.0312 9.38089 34.8928 9.1231C38.4359 7.20135 42.2004 5.67801 46.0757 4.29529C50.5875 2.70164 55.2378 1.45954 60.0542 0.686151C64.3723 0.00650768 68.7458 -0.204416 73.147 0.217431C76.5516 0.545535 79.9563 0.826764 83.3887 1.1783C86.3781 1.48297 89.3676 1.81108 92.3571 2.13918C95.568 2.51416 98.8066 2.88913 102.017 3.28754C102.599 3.35785 103.18 3.42816 103.789 3.56877C102.184 3.80313 100.606 4.06093 99.0003 4.29529C96.0662 4.74057 93.1598 5.18585 90.2257 5.63114C89.9489 5.79519 89.6167 5.74832 89.3399 5.79519C89.1185 5.79519 88.897 5.88893 88.7033 5.81863Z" fill="white"/>
<path d="M21.2739 25.0832C21.2739 23.7942 21.2739 22.5287 21.2739 21.2397C21.2739 20.9585 21.3293 20.8178 21.7168 20.8178C23.6544 20.8647 25.6197 20.7475 27.5573 20.9116C30.9067 21.1928 32.3184 23.138 31.9862 25.716C31.6817 28.0596 29.7441 29.0439 27.4189 29.2079C25.5367 29.3485 23.6544 29.2314 21.7722 29.2782C21.3293 29.2782 21.3016 29.1376 21.3016 28.8329C21.2739 27.6143 21.2739 26.3487 21.2739 25.0832Z" fill="white"/>
<path d="M13.0531 34.9963C12.4165 34.9963 11.7798 34.9963 11.1432 34.9963C10.8664 34.9963 10.7833 34.926 10.7833 34.6682C10.7003 33.1917 10.7003 33.1917 12.4165 33.1917C13.0255 33.1917 13.6344 33.1917 14.2711 33.1683C15.7381 33.098 16.6239 32.3011 16.6516 31.0356C16.6516 30.3325 16.6793 29.6294 16.6516 28.9264C16.6516 28.6451 16.7069 28.4811 17.0945 28.528C17.6757 28.5748 18.3954 28.3405 18.783 28.6217C19.1705 28.9029 18.8937 29.5357 18.8937 30.0279C18.9214 30.8012 18.9214 31.5746 18.6999 32.3246C18.2017 34.0354 17.0114 34.8791 14.9077 34.9728C14.2711 34.9963 13.6621 34.9728 13.0531 34.9963C13.0531 34.9728 13.0531 34.9728 13.0531 34.9963Z" fill="white"/>
<path d="M78.5172 17.9119C74.033 18.404 69.5488 18.9196 65.0923 19.4352C60.3866 19.9508 55.7087 20.4664 51.003 20.982C48.4564 21.2632 45.9099 21.5679 43.3356 21.8491C43.1695 21.8725 42.9757 21.8725 42.782 21.8022C43.3909 21.6382 43.9999 21.4741 44.6642 21.3101C44.5535 21.146 44.4428 21.0054 44.3044 20.7945C45.467 20.6773 46.6019 20.5836 47.7368 20.4664C50.7262 20.2086 53.688 19.9508 56.6775 19.6696C59.9438 19.3883 63.1823 19.1071 66.4486 18.8259C69.2997 18.5681 72.1784 18.3103 75.0295 18.0759C76.109 17.9822 77.2162 17.9119 78.2958 17.8181C78.3788 17.7947 78.5172 17.7244 78.5172 17.9119Z" fill="white"/>
<path d="M106.114 10.6465C109.962 10.7168 113.007 12.0527 115.332 14.6306C115.443 14.7244 115.581 14.8415 115.415 14.9822C115.221 15.1462 115.083 14.9822 114.972 14.8884C113.92 13.9744 112.758 13.1541 111.401 12.5682C106.447 10.3887 100.329 11.5371 96.9523 15.3103C96.8969 15.3571 96.8692 15.4274 96.8139 15.4743C96.6755 15.5681 96.6201 15.8258 96.371 15.6618C96.1495 15.5212 96.371 15.3806 96.454 15.2634C97.7827 13.4119 99.6649 12.0761 102.045 11.3027C103.346 10.8574 104.73 10.6231 106.114 10.6465Z" fill="white"/>
<path d="M24.3745 12.6385C28.3881 12.7088 31.433 14.0446 33.7581 16.6226C33.8688 16.7398 34.0626 16.8804 33.8411 16.9975C33.592 17.1616 33.4813 16.9272 33.3706 16.8101C31.7374 15.3102 29.7721 14.2555 27.4193 13.7399C22.8797 12.7556 18.0911 14.1852 15.2954 17.396C15.1846 17.5366 15.0739 17.7944 14.8248 17.6538C14.548 17.4897 14.8525 17.3256 14.9355 17.185C17.2053 14.2555 20.4162 12.7791 24.3745 12.6385Z" fill="white"/>
<path d="M16.6243 23.7941C16.6243 22.9739 16.6519 22.1771 16.6243 21.3802C16.6243 21.0756 16.6796 20.9115 17.0948 20.9349C17.5654 20.9584 18.036 20.9584 18.5342 20.9349C18.7833 20.9349 18.8941 21.0053 18.8941 21.2162C18.8941 22.9036 18.8941 24.6144 18.8941 26.3252C18.8941 26.5596 18.7556 26.6065 18.5342 26.6065C18.036 26.6065 17.5377 26.583 17.0395 26.6065C16.7073 26.6299 16.6243 26.5127 16.6519 26.2549C16.6243 25.4581 16.6243 24.6144 16.6243 23.7941Z" fill="white"/>
<path d="M88.2883 7.97458C89.1464 8.23237 90.0321 8.46673 90.8902 8.74797C91.2224 8.86515 90.8902 9.0292 90.8072 9.14638C89.7 10.6228 88.5374 12.0993 87.4025 13.5758C86.3506 14.9585 85.2711 16.3178 84.2193 17.7005C84.0532 17.9114 83.8871 18.052 83.638 18.1692C82.7245 18.5911 81.8111 19.0364 80.8976 19.4582C80.7592 19.5051 80.5931 19.6926 80.4824 19.5519C80.3163 19.3645 80.6485 19.3176 80.7592 19.2473C81.2852 18.9192 81.7834 18.6145 82.337 18.3333C83.1674 17.9349 83.7487 17.349 84.2469 16.6693C85.9631 14.3023 87.707 11.9821 89.4508 9.63853C89.7553 9.24012 89.7276 9.00576 89.2571 8.7714C88.8972 8.58392 88.5651 8.34955 88.2052 8.13863C88.2329 8.09176 88.2606 8.02145 88.2883 7.97458Z" fill="white"/>
<path d="M125.325 16.7166C123.332 14.0917 121.311 11.4669 119.263 8.77176C120.038 8.67802 120.73 8.60771 121.422 8.51397C121.643 8.49053 121.754 8.58427 121.837 8.72489C121.975 9.00612 122.114 9.28735 122.252 9.56858C122.363 9.77951 122.501 9.94356 122.114 10.0607C121.782 10.1779 122.031 10.4123 122.114 10.5763C123 12.17 123.913 13.7871 124.826 15.3807C125.076 15.8026 125.297 16.2244 125.518 16.6462C125.408 16.6931 125.352 16.6931 125.325 16.7166Z" fill="white"/>
<path d="M21.2739 33.0981C21.2739 32.6059 21.3016 32.0903 21.2739 31.5982C21.2739 31.3404 21.357 31.2466 21.6891 31.2466C22.1597 31.2701 22.6303 31.2701 23.1285 31.2466C23.433 31.2466 23.5437 31.317 23.5437 31.5982C23.516 32.6294 23.516 33.6371 23.5437 34.6683C23.5437 34.9261 23.433 35.0198 23.1285 34.9964C22.6579 34.973 22.1874 34.973 21.6891 34.9964C21.3846 34.9964 21.2739 34.9261 21.2739 34.6449C21.2739 34.1293 21.2739 33.6137 21.2739 33.0981Z" fill="white"/>
<path d="M96.6477 27.6376C96.2325 28.2938 95.9003 28.8328 95.5682 29.3719C95.319 29.7703 95.0699 29.7468 94.8208 29.3719C94.4886 28.8563 94.1565 28.3172 93.7413 27.661C93.7413 28.5516 93.7413 29.325 93.7413 30.0749C93.7413 30.239 93.852 30.4734 93.4645 30.4734C93.1323 30.4499 93.243 30.239 93.243 30.0984C93.243 29.1844 93.243 28.2704 93.243 27.3798C93.243 27.2392 93.1323 27.0283 93.4368 26.9814C93.6859 26.9345 93.8243 27.0283 93.9627 27.2158C94.3502 27.8485 94.7654 28.4813 95.2083 29.1375C95.6235 28.5047 96.011 27.9188 96.3986 27.2861C96.537 27.0751 96.6754 26.9111 96.9799 26.9814C97.2843 27.0517 97.1183 27.2861 97.1459 27.4501C97.1736 28.3407 97.1459 29.2312 97.1459 30.1218C97.1459 30.2624 97.2567 30.4734 96.8968 30.4734C96.537 30.4734 96.6477 30.2624 96.6477 30.1218C96.6477 29.325 96.6477 28.5516 96.6477 27.6376Z" fill="white"/>
<path d="M110.82 29.0905C111.207 29.5357 111.567 29.9576 111.955 30.4029C111.595 30.5201 111.373 30.4498 111.18 30.192C110.931 29.8873 110.654 29.6061 110.405 29.3014C110.211 29.0436 109.934 29.067 109.685 29.1139C109.408 29.1608 109.574 29.3951 109.547 29.5358C109.519 29.7701 109.547 30.0045 109.547 30.2388C109.547 30.3794 109.491 30.4498 109.297 30.4498C109.131 30.4498 109.048 30.4029 109.048 30.2388C109.048 29.2076 109.048 28.1765 109.048 27.1687C109.048 27.0047 109.131 26.9344 109.325 26.9344C109.768 26.9578 110.239 26.9344 110.681 26.9812C111.373 27.0515 111.733 27.3328 111.816 27.8249C111.927 28.4108 111.678 28.7155 110.986 28.9967C110.931 29.0202 110.875 29.0436 110.82 29.0905Z" fill="white"/>
<path d="M47.6812 29.067C48.0687 29.5123 48.4286 29.9342 48.8161 30.356C48.4563 30.5201 48.2348 30.4029 48.041 30.1685C47.7919 29.8639 47.5151 29.5826 47.266 29.278C47.0999 29.0436 46.8231 29.067 46.574 29.0905C46.2695 29.1373 46.4079 29.3483 46.4079 29.5123C46.3802 29.7467 46.3802 29.981 46.4079 30.2154C46.4079 30.4029 46.3249 30.4498 46.1311 30.4498C45.9373 30.4498 45.9097 30.3326 45.9097 30.2154C45.9097 29.2076 45.9097 28.1999 45.9097 27.1922C45.9097 26.9812 46.0204 26.9344 46.2418 26.9344C46.6847 26.9578 47.1276 26.9344 47.5428 26.9812C48.2348 27.0515 48.6223 27.3562 48.7054 27.8249C48.7884 28.4108 48.567 28.7389 47.875 28.9967C47.8196 29.0202 47.7642 29.0436 47.6812 29.067Z" fill="white"/>
<path d="M6.93611 16.4586C6.2441 16.4586 5.55209 16.4586 4.86009 16.4586C4.72169 16.4586 4.50024 16.5055 4.50024 16.318C4.50024 16.154 4.72169 16.2008 4.83241 16.2008C5.91194 16.0837 6.99147 15.943 8.071 15.8493C8.6246 15.8024 9.03981 15.5915 9.39965 15.2634C10.147 14.5603 10.8944 13.8807 11.6418 13.1776C11.7525 13.0839 11.8355 12.8495 12.0293 13.0136C12.223 13.1307 11.9739 13.2479 11.9186 13.3417C11.1435 14.3025 10.3685 15.24 9.6211 16.2008C9.45501 16.4118 9.23357 16.5055 8.92909 16.4821C8.23708 16.4352 7.57275 16.4586 6.93611 16.4586Z" fill="white"/>
<path d="M91.1116 28.6922C91.1116 28.8328 91.1116 28.9968 91.1116 29.1375C91.0562 30.0515 90.475 30.5202 89.4785 30.4967C88.482 30.4733 87.9561 29.9811 87.9561 29.0906C87.9561 28.7859 87.9561 28.4812 87.9561 28.1766C87.9837 27.3798 88.5373 26.911 89.4508 26.911C90.4473 26.8876 91.0009 27.2626 91.1116 28.0828C91.1116 28.2703 91.0839 28.4812 91.1116 28.6922Z" fill="white"/>
<path d="M68.8564 28.739C68.8564 28.8796 68.8564 28.9968 68.8564 29.1374C68.8287 29.9811 68.3028 30.4498 67.334 30.4967C66.3375 30.5201 65.7562 30.0514 65.7285 29.1843C65.7285 28.8093 65.7285 28.4109 65.7562 28.0125C65.8116 27.286 66.3928 26.8875 67.334 26.911C68.2197 26.911 68.801 27.3328 68.8564 28.0359C68.8841 28.2703 68.8564 28.5046 68.8564 28.739Z" fill="white"/>
<path d="M102.405 28.7154C102.405 28.856 102.405 29.02 102.405 29.1607C102.378 30.0043 101.824 30.4731 100.855 30.4731C99.8589 30.4731 99.3053 30.0043 99.2776 29.1138C99.2776 28.7388 99.2776 28.3638 99.2776 28.0123C99.3329 27.3092 99.8866 26.8874 100.8 26.8874C101.741 26.8874 102.322 27.2858 102.405 28.0123C102.405 28.2466 102.378 28.5044 102.405 28.7154C102.378 28.7154 102.378 28.7154 102.405 28.7154Z" fill="white"/>
<path d="M81.3686 28.2937C81.3686 28.6218 81.3962 28.9734 81.3686 29.3015C81.3132 30.028 80.7596 30.4732 79.9015 30.4967C79.0434 30.5201 78.4344 30.1217 78.3791 29.3952C78.3237 28.6687 78.3514 27.9422 78.3514 27.2391C78.3514 27.075 78.3791 26.9344 78.6282 26.9579C78.8497 26.9579 78.8496 27.0985 78.8496 27.2391C78.8496 27.8953 78.8496 28.5515 78.8496 29.2077C78.8496 29.817 79.1818 30.1217 79.8185 30.1451C80.4274 30.1451 80.815 29.8405 80.8426 29.2546C80.8703 28.5984 80.8426 27.9422 80.8426 27.286C80.8426 27.1453 80.7873 26.9579 81.0918 26.9579C81.3686 26.9579 81.3409 27.0985 81.3409 27.2625C81.3686 27.5906 81.3686 27.9422 81.3686 28.2937Z" fill="white"/>
<path d="M41.3147 28.7156C41.3147 28.2234 41.3147 27.7313 41.3147 27.2625C41.3147 27.0516 41.3701 26.9344 41.6469 26.9579C42.2558 26.9579 42.8648 26.9579 43.5014 26.9579C43.6675 26.9579 43.8059 26.9813 43.8336 27.1688C43.8336 27.4032 43.6398 27.3329 43.5014 27.3329C43.0862 27.3329 42.671 27.3563 42.2558 27.3329C41.9513 27.3329 41.8129 27.3797 41.8406 27.661C41.8683 27.825 41.8683 27.9891 41.8406 28.1531C41.8129 28.3875 41.9237 28.4812 42.2005 28.4812C42.588 28.4578 43.0032 28.4812 43.3907 28.4812C43.5845 28.4812 43.6952 28.5281 43.6952 28.7156C43.6952 28.9031 43.5291 28.8562 43.3907 28.8796C43.0862 28.8796 42.7818 28.9031 42.505 28.8796C41.9237 28.8093 41.8406 29.0202 41.8129 29.4655C41.7853 30.0046 42.0067 30.1686 42.588 30.0983C42.8648 30.0749 43.1416 30.0749 43.4184 30.0983C43.5845 30.0983 43.8613 30.0046 43.8613 30.2858C43.889 30.5905 43.6122 30.4733 43.4461 30.4967C42.8648 30.4967 42.2835 30.4967 41.7299 30.4967C41.4254 30.4967 41.3147 30.4264 41.3147 30.1686C41.3424 29.653 41.3147 29.1843 41.3147 28.7156Z" fill="white"/>
<path d="M76.5516 30.3797C76.1087 30.5437 75.9703 30.3328 75.9149 30.075C75.8319 29.6297 75.5551 29.4423 75.0292 29.536C74.8908 29.5594 74.7524 29.5594 74.614 29.536C74.1157 29.4657 73.8389 29.6297 73.7559 30.0516C73.7005 30.3094 73.5898 30.5672 73.0916 30.4031C73.4791 29.4657 73.8943 28.5048 74.2818 27.5674C74.3372 27.4268 74.4202 27.2861 74.4479 27.1455C74.5032 26.9815 74.6416 26.958 74.8077 26.958C74.9738 26.958 75.1122 27.0049 75.1676 27.169C75.6381 28.2236 76.1087 29.3016 76.5516 30.3797Z" fill="white"/>
<path d="M37.8275 26.9108C38.2427 26.8874 38.6025 26.9811 38.9347 27.1452C39.0731 27.2155 39.2945 27.2624 39.1284 27.4733C38.99 27.6608 38.8793 27.567 38.7409 27.4967C38.3534 27.3092 37.9659 27.2624 37.523 27.3092C37.2185 27.3561 36.9417 27.4498 36.914 27.7545C36.8587 28.0592 37.0801 28.2232 37.3846 28.317C37.7721 28.4342 38.1873 28.5045 38.5748 28.6216C39.1008 28.7857 39.3776 29.0904 39.3222 29.5825C39.2668 30.0747 38.907 30.3325 38.3811 30.4262C37.7721 30.5434 37.1631 30.4965 36.6372 30.1684C36.5265 30.0981 36.3327 30.0747 36.4435 29.8872C36.5542 29.6997 36.6926 29.7231 36.8863 29.8403C37.2462 30.0512 37.6337 30.145 38.0766 30.0981C38.4364 30.0512 38.7963 29.9575 38.8516 29.5825C38.907 29.1841 38.5748 29.0669 38.215 28.9732C37.9105 28.8794 37.5507 28.8326 37.2462 28.7388C36.6095 28.5279 36.3604 28.1998 36.4435 27.7076C36.5265 27.2624 36.9417 26.9811 37.606 26.9343C37.6337 26.9108 37.7444 26.9108 37.8275 26.9108Z" fill="white"/>
<path d="M117.186 30.0516C117.795 30.0516 118.404 30.0516 118.985 30.0516C119.179 30.0516 119.345 30.0516 119.345 30.286C119.345 30.4969 119.151 30.45 119.013 30.45C118.293 30.45 117.573 30.45 116.854 30.45C116.715 30.45 116.494 30.5203 116.411 30.4031C116.3 30.2391 116.439 30.075 116.549 29.9344C117.103 29.2548 117.629 28.5751 118.182 27.8955C118.321 27.7314 118.431 27.5674 118.598 27.333C117.933 27.333 117.352 27.333 116.771 27.333C116.632 27.333 116.438 27.3799 116.438 27.1455C116.438 26.9581 116.577 26.9346 116.771 26.9346C117.463 26.9346 118.155 26.9581 118.847 26.9346C119.373 26.9112 119.4 27.0987 119.151 27.4033C118.542 28.1767 117.933 28.9267 117.324 29.7001C117.269 29.7938 117.131 29.8641 117.186 30.0516Z" fill="white"/>
<path d="M52.1106 29.981C52.4982 29.0436 52.858 28.1765 53.2455 27.3094C53.3009 27.1922 53.3286 27.075 53.4116 27.0047C53.467 26.9578 53.6331 26.9344 53.7438 26.9578C53.9099 26.9812 53.8545 27.0984 53.8268 27.2156C53.3839 28.2468 52.941 29.2545 52.4982 30.2857C52.4428 30.4263 52.3044 30.4732 52.1383 30.4732C51.9446 30.4732 51.8062 30.4498 51.7231 30.2623C51.2802 29.2545 50.865 28.2468 50.4221 27.239C50.3668 27.1453 50.2837 27.0047 50.5052 26.9578C50.6713 26.9344 50.8373 26.9344 50.8927 27.0984C51.0034 27.3562 51.1141 27.5906 51.2249 27.8484C51.5017 28.528 51.7785 29.2311 52.1106 29.981Z" fill="white"/>
<path d="M58.3381 28.6921C58.3381 28.5515 58.3381 28.4343 58.3381 28.2937C58.3658 27.0984 59.5007 26.536 60.7463 27.0984C60.857 27.1453 61.1338 27.1453 60.9954 27.4031C60.8847 27.614 60.7463 27.5437 60.5526 27.4734C60.3034 27.3562 60.0266 27.3094 59.7498 27.3328C59.1685 27.3562 58.8364 27.614 58.8087 28.1062C58.781 28.4343 58.8364 28.7858 58.8087 29.1139C58.7257 30.0279 59.5007 30.2623 60.3311 30.0514C60.4695 30.0279 60.6079 29.9811 60.7186 29.9108C60.8847 29.817 60.9954 29.8405 61.1062 29.9811C61.2169 30.1217 61.0785 30.192 60.9678 30.2389C60.3588 30.5201 59.7222 30.5904 59.0855 30.356C58.5042 30.1451 58.3381 29.6998 58.3381 29.2077C58.3381 29.0436 58.3381 28.8561 58.3381 28.6921Z" fill="white"/>
<path d="M105.616 26.9343C106.032 26.9343 106.447 26.9343 106.862 26.9343C107.056 26.9343 107.167 26.9812 107.167 27.1687C107.167 27.3562 107 27.3327 106.89 27.3327C106.585 27.3562 106.17 27.2156 105.976 27.3796C105.727 27.5905 105.893 27.9655 105.893 28.2467C105.893 28.8561 105.893 29.4888 105.893 30.1216C105.893 30.2622 105.949 30.4263 105.672 30.4497C105.34 30.4497 105.395 30.2857 105.395 30.1216C105.395 29.3248 105.367 28.528 105.395 27.7546C105.395 27.4265 105.312 27.3093 104.924 27.3327C104.648 27.3327 104.149 27.5202 104.149 27.1921C104.149 26.7703 104.675 27.0281 104.952 26.9812C105.146 26.9109 105.395 26.9343 105.616 26.9343Z" fill="white"/>
<path d="M84.4686 28.8797C84.4686 28.5516 84.4409 28.2469 84.4686 27.9188C84.524 27.4501 84.3856 27.2157 83.7766 27.3095C83.6382 27.3329 83.4998 27.3095 83.3614 27.3095C83.223 27.3095 83.14 27.2626 83.1677 27.122C83.1677 27.0048 83.1953 26.911 83.3614 26.911C84.2472 26.911 85.133 26.911 86.0464 26.911C86.2125 26.911 86.2678 27.0048 86.2678 27.1454C86.2678 27.286 86.1294 27.286 86.0187 27.286C85.991 27.286 85.991 27.286 85.9634 27.286C85.6312 27.3095 85.1883 27.1454 85.0222 27.3798C84.8561 27.6141 84.9669 27.9657 84.9669 28.2703C84.9669 28.8797 84.9669 29.5124 84.9669 30.1452C84.9669 30.3093 84.9946 30.4499 84.7178 30.4499C84.4133 30.4499 84.4686 30.2858 84.4686 30.1452C84.4686 29.7234 84.4686 29.3015 84.4686 28.8797Z" fill="white"/>
<path d="M55.6809 28.7155C55.6809 28.2468 55.6809 27.7781 55.6809 27.3093C55.6809 27.1453 55.5978 26.9578 55.93 26.9344C56.2345 26.9344 56.2068 27.1218 56.2068 27.2859C56.2068 28.2468 56.2068 29.1842 56.2068 30.1451C56.2068 30.2857 56.2345 30.4498 55.9577 30.4498C55.6255 30.4498 55.6809 30.2623 55.6809 30.1217C55.6809 29.6529 55.6809 29.1842 55.6809 28.7155Z" fill="white"/>
<path d="M63.5975 28.7389C63.5975 29.2311 63.5975 29.6998 63.5975 30.192C63.5975 30.3326 63.5975 30.4498 63.3483 30.4498C63.0992 30.4498 63.0715 30.3326 63.0715 30.1685C63.0715 29.1842 63.0715 28.1999 63.0715 27.2156C63.0715 27.075 63.0715 26.9344 63.3207 26.9344C63.5698 26.9344 63.5975 27.0515 63.5975 27.2156C63.5975 27.7312 63.5975 28.2233 63.5975 28.7389Z" fill="white"/>
<path d="M114.418 28.739C114.418 29.2312 114.418 29.6999 114.418 30.1921C114.418 30.3327 114.418 30.4499 114.169 30.4499C113.92 30.4499 113.92 30.3561 113.92 30.1921C113.92 29.2078 113.92 28.2235 113.92 27.2157C113.92 27.0751 113.892 26.911 114.169 26.911C114.418 26.9345 114.39 27.0517 114.39 27.1923C114.418 27.7313 114.418 28.2235 114.418 28.739Z" fill="white"/>
<path d="M89.2573 5.72491C89.5618 5.70147 89.8939 5.6546 90.1984 5.63116C90.3368 5.74834 90.5306 5.70147 90.6967 5.72491C90.2538 5.84209 89.8109 5.79522 89.368 5.81865C89.2573 5.84209 89.2296 5.79522 89.2573 5.72491Z" fill="white"/>
<path d="M34.8926 9.09967C35.0311 9.28716 35.2802 9.21685 35.4739 9.24029C35.1418 9.42778 34.8373 9.33403 34.5051 9.24029C34.6435 9.21685 34.8096 9.24029 34.8926 9.09967Z" fill="white"/>
<path d="M79.7075 17.7943C79.486 17.8177 79.2646 17.8177 79.0432 17.8412C78.9324 17.8646 78.7664 17.9349 78.7664 17.7474C78.9601 17.724 79.1539 17.724 79.32 17.724C79.4584 17.7005 79.6521 17.5599 79.7075 17.7943Z" fill="white"/>
<path d="M78.7667 17.7242C78.8497 17.7477 78.9604 17.7945 79.0435 17.818C78.8774 17.8883 78.7113 17.9117 78.5175 17.8883C78.4345 17.8649 78.3514 17.818 78.2407 17.7946C78.4068 17.7242 78.5729 17.7242 78.7667 17.7242Z" fill="white"/>
<path d="M79.7073 17.7943C79.5965 17.7709 79.4581 17.724 79.3474 17.7006C79.5135 17.6068 79.6796 17.6068 79.8733 17.6303C79.901 17.6537 79.9841 17.6537 79.9841 17.724C79.901 17.7943 79.7903 17.8178 79.7073 17.7943Z" fill="white"/>
<path d="M79.9562 17.7244C79.9285 17.7009 79.8731 17.6538 79.8455 17.6303C80.0669 17.6303 80.2607 17.6303 80.5375 17.6303C80.316 17.7715 80.1499 17.7244 79.9562 17.7244Z" fill="white"/>
<path d="M36.6648 9.26361C42.1732 6.68565 47.8476 4.50611 53.9926 3.264C57.508 2.53749 61.1065 2.27969 64.7049 2.16251C67.4176 2.06877 70.1302 2.13907 72.8429 2.39687C75.5556 2.65466 78.1575 3.24057 80.7872 3.8499C83.2784 4.4358 85.7696 5.06857 88.1501 5.88883C88.2055 5.91227 88.3162 5.91226 88.3716 5.91226C88.4823 6.07632 88.3715 6.09975 88.2055 6.09975C85.7696 6.2638 83.3337 6.42786 80.9256 6.61534C78.1852 6.82627 75.4449 7.06063 72.7045 7.29499C69.9365 7.52935 67.1961 7.78714 64.4281 8.04494C61.4386 8.32617 58.4769 8.6074 55.5151 8.88863C51.9166 9.21674 48.3459 9.59171 44.7474 9.68546C42.0071 9.75576 39.2667 9.66202 36.5541 9.42766C36.5264 9.33391 36.5818 9.28704 36.6648 9.26361Z" fill="black"/>
<path d="M89.2571 5.7248C89.2847 5.74823 89.3401 5.7951 89.3678 5.81854C89.1463 5.86541 88.9249 6.00603 88.6758 5.81854C88.8972 5.7951 89.0633 5.67793 89.2571 5.7248Z" fill="white"/>
<path d="M35.696 9.2403C35.8621 9.26373 36.0559 9.19342 36.1943 9.33404C36.222 9.35747 36.2496 9.38091 36.222 9.40435C36.1943 9.42778 36.1943 9.42778 36.1943 9.42778C36.0005 9.42778 35.7791 9.49809 35.696 9.2403Z" fill="white"/>
<path d="M36.1941 9.42766C36.1941 9.40423 36.1941 9.35736 36.1941 9.33392C36.3602 9.31048 36.4986 9.28705 36.6647 9.26361C36.637 9.31048 36.5816 9.38079 36.5539 9.42766C36.4432 9.42766 36.3048 9.42766 36.1941 9.42766Z" fill="white"/>
<path d="M23.4885 25.0595C23.4885 24.333 23.4885 23.6064 23.4885 22.9034C23.4885 22.7159 23.4885 22.5518 23.793 22.5753C24.9833 22.6221 26.2012 22.4581 27.4191 22.669C28.8031 22.9268 29.6335 23.8174 29.6335 25.0595C29.6335 26.2781 28.8031 27.239 27.4745 27.4968C26.2566 27.7312 25.0386 27.5671 23.793 27.614C23.4885 27.614 23.5162 27.4499 23.5162 27.2624C23.4885 26.5359 23.4885 25.8094 23.4885 25.0595Z" fill="black"/>
<path d="M109.519 27.9658C109.574 27.708 109.269 27.2627 110.045 27.3096C110.986 27.3565 111.345 27.5205 111.318 28.0361C111.318 28.5283 110.958 28.7158 110.045 28.7158C109.436 28.7158 109.546 28.8329 109.519 27.9658Z" fill="black"/>
<path d="M46.408 27.9888C46.4633 27.7076 46.1589 27.2857 46.9339 27.3092C47.8474 27.356 48.2349 27.5435 48.2072 28.0357C48.1795 28.5044 47.8197 28.7153 46.9339 28.7153C46.3249 28.7153 46.4357 28.8091 46.408 27.9888Z" fill="black"/>
<path d="M90.5857 28.6923C90.5857 28.8564 90.5857 29.0204 90.5857 29.1845C90.558 29.7704 90.2259 30.0516 89.5892 30.0985C88.9249 30.1219 88.5097 29.8172 88.4544 29.2548C88.4267 28.8798 88.4267 28.5282 88.4544 28.1533C88.5097 27.5674 88.8696 27.2861 89.5892 27.3096C90.2536 27.333 90.558 27.6142 90.5857 28.2001C90.5857 28.3642 90.5857 28.5282 90.5857 28.6923Z" fill="#020202"/>
<path d="M66.2276 28.692C66.2276 28.5279 66.2276 28.3639 66.2276 28.1998C66.2553 27.5905 66.5875 27.3093 67.2795 27.2858C67.9715 27.2624 68.3313 27.5671 68.359 28.1764C68.3867 28.5279 68.3867 28.8795 68.359 29.231C68.3313 29.8169 67.9161 30.1216 67.2241 30.0981C66.5598 30.0747 66.2276 29.77 66.2 29.2076C66.2276 29.0435 66.2276 28.8795 66.2276 28.692Z" fill="#010101"/>
<path d="M101.907 28.739C101.907 28.903 101.907 29.0671 101.907 29.2311C101.879 29.7936 101.492 30.0983 100.855 30.0983C100.219 30.0983 99.8033 29.7936 99.7756 29.2546C99.748 28.8796 99.748 28.5281 99.7756 28.1531C99.8033 27.5672 100.191 27.2859 100.883 27.2859C101.547 27.2859 101.879 27.5906 101.907 28.1531C101.907 28.364 101.907 28.5515 101.907 28.739Z" fill="black"/>
<path d="M75.5555 29.1375C75.168 29.1375 74.8358 29.1375 74.5313 29.1375C74.4206 29.1375 74.3099 29.1375 74.1438 29.1141C74.3652 28.5751 74.559 28.0595 74.8358 27.4033C75.0849 28.036 75.3064 28.5516 75.5555 29.1375Z" fill="#0C0C0C"/>
<path d="M45.5781 9.31035C45.329 9.31035 45.0522 9.33379 44.8031 9.31035C44.3048 9.26348 44.028 8.95881 43.945 8.60727C43.8619 8.2323 43.8066 7.81045 44.4432 7.62296C45.5504 7.29486 46.63 6.91989 47.7095 6.59178C48.6506 6.28712 50.0623 6.94332 50.09 7.69327C50.1177 8.09168 49.9793 8.32604 49.4534 8.39635C48.6506 8.4901 47.8479 8.63071 47.0728 8.77133C46.9068 8.79476 46.6023 8.74789 46.7407 9.07599C46.8237 9.26348 46.63 9.33379 46.4362 9.33379C46.1594 9.33379 45.8826 9.31035 45.5781 9.31035Z" fill="white"/>
</svg>
